<mxfile host="app.diagrams.net" modified="2023-05-31T14:29:09.389Z" agent="Mozilla/5.0 (Windows NT 10.0; Win64; x64) AppleWebKit/537.36 (KHTML, like Gecko) Chrome/113.0.0.0 Safari/537.36" etag="HpUv_I-VaoB4FJlU73-z" version="21.3.2" type="github">
  <diagram name="Page-1" id="zpdPBajTg8lWaTaqJfvn">
    <mxGraphModel dx="2127" dy="1438" grid="0" gridSize="10" guides="1" tooltips="1" connect="1" arrows="1" fold="1" page="0" pageScale="1" pageWidth="827" pageHeight="1169" math="0" shadow="0">
      <root>
        <mxCell id="0" />
        <mxCell id="1" parent="0" />
        <mxCell id="NegzNzx1tmiyndpB6ov7-1" value="Bidder&lt;br&gt;" style="shape=umlActor;verticalLabelPosition=bottom;verticalAlign=top;html=1;outlineConnect=0;fontSize=16;" parent="1" vertex="1">
          <mxGeometry x="-196" y="-121" width="30" height="60" as="geometry" />
        </mxCell>
        <mxCell id="NegzNzx1tmiyndpB6ov7-2" value="Auctioneer" style="shape=umlActor;verticalLabelPosition=bottom;verticalAlign=top;html=1;outlineConnect=0;fontSize=16;" parent="1" vertex="1">
          <mxGeometry x="-196" y="144" width="30" height="60" as="geometry" />
        </mxCell>
        <mxCell id="NegzNzx1tmiyndpB6ov7-4" value="Admin&lt;br&gt;" style="shape=umlActor;verticalLabelPosition=bottom;verticalAlign=top;html=1;outlineConnect=0;fontSize=16;" parent="1" vertex="1">
          <mxGeometry x="-196" y="6" width="30" height="60" as="geometry" />
        </mxCell>
        <mxCell id="NegzNzx1tmiyndpB6ov7-17" value="List" style="swimlane;fontStyle=0;childLayout=stackLayout;horizontal=1;startSize=30;horizontalStack=0;resizeParent=1;resizeParentMax=0;resizeLast=0;collapsible=1;marginBottom=0;whiteSpace=wrap;html=1;fontSize=16;" parent="1" vertex="1">
          <mxGeometry x="-223" y="290" width="140" height="120" as="geometry" />
        </mxCell>
        <mxCell id="NegzNzx1tmiyndpB6ov7-18" value="Item 1" style="text;strokeColor=none;fillColor=none;align=left;verticalAlign=middle;spacingLeft=4;spacingRight=4;overflow=hidden;points=[[0,0.5],[1,0.5]];portConstraint=eastwest;rotatable=0;whiteSpace=wrap;html=1;fontSize=16;" parent="NegzNzx1tmiyndpB6ov7-17" vertex="1">
          <mxGeometry y="30" width="140" height="30" as="geometry" />
        </mxCell>
        <mxCell id="NegzNzx1tmiyndpB6ov7-19" value="Item 2" style="text;strokeColor=none;fillColor=none;align=left;verticalAlign=middle;spacingLeft=4;spacingRight=4;overflow=hidden;points=[[0,0.5],[1,0.5]];portConstraint=eastwest;rotatable=0;whiteSpace=wrap;html=1;fontSize=16;" parent="NegzNzx1tmiyndpB6ov7-17" vertex="1">
          <mxGeometry y="60" width="140" height="30" as="geometry" />
        </mxCell>
        <mxCell id="NegzNzx1tmiyndpB6ov7-20" value="Item 3" style="text;strokeColor=none;fillColor=none;align=left;verticalAlign=middle;spacingLeft=4;spacingRight=4;overflow=hidden;points=[[0,0.5],[1,0.5]];portConstraint=eastwest;rotatable=0;whiteSpace=wrap;html=1;fontSize=16;" parent="NegzNzx1tmiyndpB6ov7-17" vertex="1">
          <mxGeometry y="90" width="140" height="30" as="geometry" />
        </mxCell>
        <mxCell id="NegzNzx1tmiyndpB6ov7-27" value="Vertical Container" style="swimlane;whiteSpace=wrap;html=1;fontSize=16;" parent="1" vertex="1">
          <mxGeometry x="-233" y="447" width="280" height="235.5" as="geometry" />
        </mxCell>
        <mxCell id="NegzNzx1tmiyndpB6ov7-30" value="" style="edgeStyle=none;curved=1;rounded=0;orthogonalLoop=1;jettySize=auto;html=1;fontSize=12;startSize=8;endSize=8;" parent="NegzNzx1tmiyndpB6ov7-27" source="NegzNzx1tmiyndpB6ov7-28" target="NegzNzx1tmiyndpB6ov7-29" edge="1">
          <mxGeometry relative="1" as="geometry" />
        </mxCell>
        <mxCell id="NegzNzx1tmiyndpB6ov7-31" value="" style="edgeStyle=none;curved=1;rounded=0;orthogonalLoop=1;jettySize=auto;html=1;fontSize=12;startSize=8;endSize=8;" parent="NegzNzx1tmiyndpB6ov7-27" source="NegzNzx1tmiyndpB6ov7-28" target="NegzNzx1tmiyndpB6ov7-29" edge="1">
          <mxGeometry relative="1" as="geometry" />
        </mxCell>
        <mxCell id="NegzNzx1tmiyndpB6ov7-32" value="" style="edgeStyle=none;curved=1;rounded=0;orthogonalLoop=1;jettySize=auto;html=1;fontSize=12;startSize=8;endSize=8;" parent="NegzNzx1tmiyndpB6ov7-27" source="NegzNzx1tmiyndpB6ov7-28" target="NegzNzx1tmiyndpB6ov7-29" edge="1">
          <mxGeometry relative="1" as="geometry" />
        </mxCell>
        <mxCell id="NegzNzx1tmiyndpB6ov7-28" value="REGISTER" style="text;html=1;align=center;verticalAlign=middle;resizable=0;points=[];autosize=1;strokeColor=none;fillColor=none;fontSize=16;" parent="NegzNzx1tmiyndpB6ov7-27" vertex="1">
          <mxGeometry x="87" y="45" width="100" height="31" as="geometry" />
        </mxCell>
        <mxCell id="NegzNzx1tmiyndpB6ov7-29" value="Bidder" style="whiteSpace=wrap;html=1;fontSize=16;" parent="NegzNzx1tmiyndpB6ov7-27" vertex="1">
          <mxGeometry x="17" y="127" width="120" height="60" as="geometry" />
        </mxCell>
        <mxCell id="NegzNzx1tmiyndpB6ov7-33" value="Auctioneer" style="whiteSpace=wrap;html=1;fontSize=16;" parent="NegzNzx1tmiyndpB6ov7-27" vertex="1">
          <mxGeometry x="143" y="127" width="120" height="60" as="geometry" />
        </mxCell>
        <mxCell id="NegzNzx1tmiyndpB6ov7-34" value="" style="edgeStyle=none;curved=1;rounded=0;orthogonalLoop=1;jettySize=auto;html=1;fontSize=12;startSize=8;endSize=8;" parent="NegzNzx1tmiyndpB6ov7-27" source="NegzNzx1tmiyndpB6ov7-28" target="NegzNzx1tmiyndpB6ov7-33" edge="1">
          <mxGeometry relative="1" as="geometry" />
        </mxCell>
        <mxCell id="NegzNzx1tmiyndpB6ov7-68" style="edgeStyle=none;curved=1;rounded=0;orthogonalLoop=1;jettySize=auto;html=1;exitX=0.5;exitY=1;exitDx=0;exitDy=0;entryX=0.5;entryY=0;entryDx=0;entryDy=0;fontSize=12;startSize=8;endSize=8;" parent="1" source="NegzNzx1tmiyndpB6ov7-35" target="NegzNzx1tmiyndpB6ov7-36" edge="1">
          <mxGeometry relative="1" as="geometry" />
        </mxCell>
        <mxCell id="NegzNzx1tmiyndpB6ov7-35" value="Start" style="rounded=1;whiteSpace=wrap;html=1;fontSize=16;" parent="1" vertex="1">
          <mxGeometry x="443" y="-217" width="120" height="60" as="geometry" />
        </mxCell>
        <mxCell id="NegzNzx1tmiyndpB6ov7-67" style="edgeStyle=none;curved=1;rounded=0;orthogonalLoop=1;jettySize=auto;html=1;exitX=0.5;exitY=1;exitDx=0;exitDy=0;entryX=0.5;entryY=0;entryDx=0;entryDy=0;fontSize=12;startSize=8;endSize=8;" parent="1" source="NegzNzx1tmiyndpB6ov7-36" target="NegzNzx1tmiyndpB6ov7-37" edge="1">
          <mxGeometry relative="1" as="geometry" />
        </mxCell>
        <mxCell id="NegzNzx1tmiyndpB6ov7-36" value="Enter Login info" style="shape=parallelogram;perimeter=parallelogramPerimeter;whiteSpace=wrap;html=1;fixedSize=1;fontSize=16;" parent="1" vertex="1">
          <mxGeometry x="427.5" y="-84" width="151" height="83" as="geometry" />
        </mxCell>
        <mxCell id="NegzNzx1tmiyndpB6ov7-66" style="edgeStyle=none;curved=1;rounded=0;orthogonalLoop=1;jettySize=auto;html=1;exitX=0.5;exitY=1;exitDx=0;exitDy=0;entryX=0.5;entryY=0;entryDx=0;entryDy=0;fontSize=12;startSize=8;endSize=8;" parent="1" source="NegzNzx1tmiyndpB6ov7-37" target="NegzNzx1tmiyndpB6ov7-38" edge="1">
          <mxGeometry relative="1" as="geometry" />
        </mxCell>
        <mxCell id="NegzNzx1tmiyndpB6ov7-37" value="Data Processing" style="rounded=0;whiteSpace=wrap;html=1;fontSize=16;" parent="1" vertex="1">
          <mxGeometry x="433.25" y="43" width="139.5" height="88" as="geometry" />
        </mxCell>
        <mxCell id="NegzNzx1tmiyndpB6ov7-43" style="edgeStyle=none;curved=1;rounded=0;orthogonalLoop=1;jettySize=auto;html=1;entryX=0.5;entryY=0;entryDx=0;entryDy=0;fontSize=12;startSize=8;endSize=8;" parent="1" source="NegzNzx1tmiyndpB6ov7-38" edge="1">
          <mxGeometry relative="1" as="geometry">
            <mxPoint x="503" y="416" as="targetPoint" />
          </mxGeometry>
        </mxCell>
        <mxCell id="NegzNzx1tmiyndpB6ov7-49" value="" style="edgeStyle=none;curved=1;rounded=0;orthogonalLoop=1;jettySize=auto;html=1;fontSize=12;startSize=8;endSize=8;" parent="1" source="NegzNzx1tmiyndpB6ov7-38" target="NegzNzx1tmiyndpB6ov7-48" edge="1">
          <mxGeometry relative="1" as="geometry" />
        </mxCell>
        <mxCell id="NegzNzx1tmiyndpB6ov7-38" value="Does the user login exist?" style="rhombus;whiteSpace=wrap;html=1;fontSize=16;" parent="1" vertex="1">
          <mxGeometry x="341" y="188" width="320" height="142" as="geometry" />
        </mxCell>
        <mxCell id="NegzNzx1tmiyndpB6ov7-44" value="Yes" style="text;html=1;align=center;verticalAlign=middle;resizable=0;points=[];autosize=1;strokeColor=none;fillColor=none;fontSize=16;" parent="1" vertex="1">
          <mxGeometry x="510" y="353" width="44" height="31" as="geometry" />
        </mxCell>
        <mxCell id="NegzNzx1tmiyndpB6ov7-64" style="edgeStyle=none;curved=1;rounded=0;orthogonalLoop=1;jettySize=auto;html=1;exitX=0.5;exitY=1;exitDx=0;exitDy=0;entryX=0.5;entryY=0;entryDx=0;entryDy=0;fontSize=12;startSize=8;endSize=8;" parent="1" source="NegzNzx1tmiyndpB6ov7-47" target="NegzNzx1tmiyndpB6ov7-51" edge="1">
          <mxGeometry relative="1" as="geometry" />
        </mxCell>
        <mxCell id="NegzNzx1tmiyndpB6ov7-47" value="Log in the account" style="shape=process;whiteSpace=wrap;html=1;backgroundOutline=1;fontSize=16;" parent="1" vertex="1">
          <mxGeometry x="406" y="415" width="194" height="115" as="geometry" />
        </mxCell>
        <mxCell id="NegzNzx1tmiyndpB6ov7-48" value="" style="whiteSpace=wrap;html=1;fontSize=16;" parent="1" vertex="1">
          <mxGeometry x="881" y="229" width="120" height="60" as="geometry" />
        </mxCell>
        <mxCell id="NegzNzx1tmiyndpB6ov7-50" value="No" style="text;html=1;align=center;verticalAlign=middle;resizable=0;points=[];autosize=1;strokeColor=none;fillColor=none;fontSize=16;" parent="1" vertex="1">
          <mxGeometry x="749" y="219" width="38" height="31" as="geometry" />
        </mxCell>
        <mxCell id="NegzNzx1tmiyndpB6ov7-65" style="edgeStyle=none;curved=1;rounded=0;orthogonalLoop=1;jettySize=auto;html=1;exitX=0.5;exitY=1;exitDx=0;exitDy=0;entryX=0.5;entryY=0;entryDx=0;entryDy=0;fontSize=12;startSize=8;endSize=8;" parent="1" source="NegzNzx1tmiyndpB6ov7-51" target="NegzNzx1tmiyndpB6ov7-52" edge="1">
          <mxGeometry relative="1" as="geometry" />
        </mxCell>
        <mxCell id="NegzNzx1tmiyndpB6ov7-51" value="Verify with Authenticator" style="shape=parallelogram;perimeter=parallelogramPerimeter;whiteSpace=wrap;html=1;fixedSize=1;fontSize=16;" parent="1" vertex="1">
          <mxGeometry x="372.5" y="588" width="257" height="106" as="geometry" />
        </mxCell>
        <mxCell id="NegzNzx1tmiyndpB6ov7-54" value="" style="edgeStyle=none;curved=1;rounded=0;orthogonalLoop=1;jettySize=auto;html=1;fontSize=12;startSize=8;endSize=8;" parent="1" source="NegzNzx1tmiyndpB6ov7-52" edge="1">
          <mxGeometry relative="1" as="geometry">
            <mxPoint x="501" y="1036.5" as="targetPoint" />
          </mxGeometry>
        </mxCell>
        <mxCell id="NegzNzx1tmiyndpB6ov7-52" value="Is the code correct?" style="rhombus;whiteSpace=wrap;html=1;fontSize=16;" parent="1" vertex="1">
          <mxGeometry x="367.5" y="756" width="267" height="127" as="geometry" />
        </mxCell>
        <mxCell id="NegzNzx1tmiyndpB6ov7-55" value="Yes" style="text;html=1;align=center;verticalAlign=middle;resizable=0;points=[];autosize=1;strokeColor=none;fillColor=none;fontSize=16;" parent="1" vertex="1">
          <mxGeometry x="515" y="922" width="44" height="31" as="geometry" />
        </mxCell>
        <mxCell id="NegzNzx1tmiyndpB6ov7-62" style="edgeStyle=none;curved=1;rounded=0;orthogonalLoop=1;jettySize=auto;html=1;exitX=1;exitY=1;exitDx=0;exitDy=0;exitPerimeter=0;entryX=0.972;entryY=0.555;entryDx=0;entryDy=0;entryPerimeter=0;fontSize=12;startSize=8;endSize=8;" parent="1" source="NegzNzx1tmiyndpB6ov7-57" target="NegzNzx1tmiyndpB6ov7-51" edge="1">
          <mxGeometry relative="1" as="geometry" />
        </mxCell>
        <mxCell id="NegzNzx1tmiyndpB6ov7-57" value="" style="strokeWidth=2;html=1;shape=mxgraph.flowchart.annotation_1;align=left;pointerEvents=1;fontSize=16;direction=west;" parent="1" vertex="1">
          <mxGeometry x="634.5" y="646" width="63.5" height="173" as="geometry" />
        </mxCell>
        <mxCell id="NegzNzx1tmiyndpB6ov7-63" value="No" style="text;html=1;align=center;verticalAlign=middle;resizable=0;points=[];autosize=1;strokeColor=none;fillColor=none;fontSize=16;" parent="1" vertex="1">
          <mxGeometry x="707" y="717" width="38" height="31" as="geometry" />
        </mxCell>
        <mxCell id="j2cFxsoZ4VfLnGYJWccd-3" style="edgeStyle=none;curved=1;rounded=0;orthogonalLoop=1;jettySize=auto;html=1;exitX=0.5;exitY=1;exitDx=0;exitDy=0;entryX=0.5;entryY=0;entryDx=0;entryDy=0;fontSize=12;startSize=8;endSize=8;" edge="1" parent="1" source="j2cFxsoZ4VfLnGYJWccd-1" target="j2cFxsoZ4VfLnGYJWccd-2">
          <mxGeometry relative="1" as="geometry" />
        </mxCell>
        <mxCell id="j2cFxsoZ4VfLnGYJWccd-1" value="Login Accepted" style="shape=parallelogram;perimeter=parallelogramPerimeter;whiteSpace=wrap;html=1;fixedSize=1;fontSize=16;" vertex="1" parent="1">
          <mxGeometry x="372.5" y="992" width="257" height="97" as="geometry" />
        </mxCell>
        <mxCell id="j2cFxsoZ4VfLnGYJWccd-2" value="Logged In: BidWin" style="ellipse;whiteSpace=wrap;html=1;fontSize=16;" vertex="1" parent="1">
          <mxGeometry x="385.5" y="1177" width="231" height="124" as="geometry" />
        </mxCell>
      </root>
    </mxGraphModel>
  </diagram>
</mxfile>
